{"title":"Silvio Narizzano - 1965 - Die Die My Darling_Xvid-CG","uid":11207925,"size":1565566408,"categoryP":"video","categoryS":"movies","magnet":"?xt=urn:btih:e3646a5e38a17bc797ed840c2db2862eabb918c2&amp;dn=Silvio+Narizzano+-+1965+-+Die+Die+My+Darling_Xvid-CG&amp;tr=udp%3A%2F%2Ftracker.openbittorrent.com%3A80&amp;tr=udp%3A%2F%2Fopen.demonii.com%3A1337&amp;tr=udp%3A%2F%2Ftracker.coppersurfer.tk%3A6969&amp;tr=udp%3A%2F%2Fexodus.desync.com%3A6969","seeders":0,"leechers":3,"uploader":"rpessoa","files":2,"time":1413242909,"description":"A young woman is terrorized by her fiance's demented mother who blames her for her son's death.\n &lt;a href=&quot;\nhttp://www.imdb.com/title/tt0059106/&quot; rel=&quot;nofollow&quot; target=&quot;_NEW&quot;&gt;\nhttp://www.imdb.com/title/tt0059106/&lt;/a&gt;\n\nGeneral\nComplete name                            : Die Die My Darling_Xvid-CG.avi\nFormat                                   : AVI\nFormat/Info                              : Audio Video Interleave\nFile size                                : 1.46 GiB\nDuration                                 : 1h 36mn\nOverall bit rate                         : 2 168 Kbps\nWriting application                      : VirtualDubMod 1.5.4.1 (build 2178/release)\nWriting library                          : VirtualDubMod build 2178/release\n\nVideo\nID                                       : 0\nFormat                                   : MPEG-4 Visual\nFormat profile                           : Advanced Simple@L5\nFormat settings, BVOP                    : 1\nFormat settings, QPel                    : No\nFormat settings, GMC                     : No warppoints\nFormat settings, Matrix                  : Custom\nCodec ID                                 : XVID\nCodec ID/Hint                            : XviD\nDuration                                 : 1h 36mn\nBit rate                                 : 1 969 Kbps\nWidth                                    : 720 pixels\nHeight                                   : 384 pixels\nDisplay aspect ratio                     : 1.875\nFrame rate                               : 23.976 fps\nColor space                              : YUV\nChroma subsampling                       : 4:2:0\nBit depth                                : 8 bits\nScan type                                : Progressive\nCompression mode                         : Lossy\nBits/(Pixel*Frame)                       : 0.297\nStream size                              : 1.32 GiB (91%)\nWriting library                          : XviD 1.2.0.dev47 (UTC 2006-11-01)\n\nAudio\nID                                       : 1\nFormat                                   : MPEG Audio\nFormat version                           : Version 1\nFormat profile                           : Layer 3\nMode                                     : Joint stereo\nMode extension                           : MS Stereo\nCodec ID                                 : 55\nCodec ID/Hint                            : MP3\nDuration                                 : 1h 36mn\nBit rate mode                            : Constant\nBit rate                                 : 192 Kbps\nChannel(s)                               : 2 channels\nSampling rate                            : 48.0 KHz\nCompression mode                         : Lossy\nStream size                              : 132 MiB (9%)\nAlignment                                : Aligned on interleaves\nInterleave, duration                     : 83 ms (2.00 video frames)\nInterleave, preload duration             : 504 ms\nWriting library                          : LAME3.97\nEncoding settings                        : -m j -V 4 -q 2 -lowpass 18.6 -b 192\nLanguage                                 : English","torrent":{"xt":"urn:btih:e3646a5e38a17bc797ed840c2db2862eabb918c2","amp;dn":"Silvio+Narizzano+-+1965+-+Die+Die+My+Darling_Xvid-CG","amp;tr":["udp%3A%2F%2Ftracker.openbittorrent.com%3A80","udp%3A%2F%2Fopen.demonii.com%3A1337","udp%3A%2F%2Ftracker.coppersurfer.tk%3A6969","udp%3A%2F%2Fexodus.desync.com%3A6969"],"infoHash":"e3646a5e38a17bc797ed840c2db2862eabb918c2","infoHashBuffer":{"type":"Buffer","data":[227,100,106,94,56,161,123,199,151,237,132,12,45,178,134,46,171,185,24,194]},"announce":[],"urlList":[]}}